<svg xmlns="http://www.w3.org/2000/svg" viewBox="0 0 1644.1 340.16"><g id="b25d3802-8c99-427a-a10a-9d2a9becd90e" data-name="TRIANGLE"><path d="M236.15,204.39l-.22.27a14.33,14.33,0,0,0-1,1.26c-.13.18-.25.37-.36.55s-.25.39-.37.6l-.16.29c-.17.3-.33.61-.48.92l0,0c-.16.34-.31.68-.45,1h0a5.82,5.82,0,0,0-.3.79H107.33a5.82,5.82,0,0,0-.3-.79c-.13-.35-.29-.7-.45-1l0,0c-.16-.35-.34-.69-.53-1l0,0c-.18-.33-.37-.64-.58-1l0-.06c-.17-.27-.35-.52-.53-.77s-.48-.63-.73-.92a.79.79,0,0,0-.12-.15L166.77,95.7c.33.06.67.11,1,.15s.77.09,1.15.11.77,0,1.15,0h0c.38,0,.77,0,1.15,0s.77-.06,1.15-.11.68-.09,1-.16Zm-34.72-46.64-5-8.66-26.35,15.22L143.74,149.1l-5,8.66L165.08,173v30.41h10V173ZM288.3,107.6a132.94,132.94,0,0,1,15.51,62.48c0,72.07-57.3,131-128.73,133.64V228.89h-10v74.83C93.65,301.08,36.35,242.15,36.35,170.08A132.94,132.94,0,0,1,51.86,107.6L116.65,145l5-8.66L56.88,99a133.65,133.65,0,0,1,226.4,0l-64.76,37.39,5,8.66ZM267.88,216.85a15,15,0,0,0,0-1.64,17.66,17.66,0,0,0-1.07-5.28l0-.09c-.09-.24-.19-.49-.3-.73s-.21-.49-.33-.73a.66.66,0,0,0-.09-.19c-.1-.22-.22-.45-.34-.66s-.15-.28-.23-.42a1.64,1.64,0,0,0-.14-.22,2.85,2.85,0,0,0-.23-.37,8.9,8.9,0,0,0-.61-.9,3.28,3.28,0,0,0-.27-.38c-.13-.19-.28-.37-.43-.55a.19.19,0,0,0-.06-.07,7.46,7.46,0,0,0-.53-.61,5.91,5.91,0,0,0-.6-.63,6.21,6.21,0,0,0-.59-.56.15.15,0,0,0-.07-.07,5.62,5.62,0,0,0-.53-.46,1.79,1.79,0,0,0-.28-.22,9,9,0,0,0-.89-.67c-.15-.12-.3-.22-.46-.33l-.17-.1-.71-.44a2.69,2.69,0,0,0-.29-.16c-.3-.17-.61-.33-.92-.48l0,0c-.34-.16-.68-.31-1-.45h0a10,10,0,0,0-1.08-.4,15.5,15.5,0,0,0-2.25-.59,9.36,9.36,0,0,0-1.08-.18l-.11,0c-.36,0-.74-.08-1.11-.1s-.76,0-1.15,0c-.23,0-.46,0-.68,0l-.49,0a14.14,14.14,0,0,0-1.72.19l-.43.07L183.79,89.69c.19-.22.37-.44.54-.67a8.72,8.72,0,0,0,.63-.87.83.83,0,0,0,.12-.16q.33-.49.63-1c.15-.25.28-.5.4-.75a6.67,6.67,0,0,0,.35-.71c.13-.25.24-.51.35-.77s.27-.72.39-1.08a16.9,16.9,0,0,0,.78-3.4c.05-.38.09-.76.11-1.15s0-.77,0-1.15v0c0-.38,0-.77,0-1.15S188,76,188,75.64a17.56,17.56,0,0,0-1.18-4.48s0,0,0,0q-.15-.37-.33-.75a6.16,6.16,0,0,0-.34-.68c-.06-.13-.12-.25-.19-.37l-.21-.38c-.2-.34-.41-.68-.63-1a2.64,2.64,0,0,0-.21-.29,7.24,7.24,0,0,0-.47-.66,3.68,3.68,0,0,0-.31-.38,5.05,5.05,0,0,0-.43-.51,4.65,4.65,0,0,0-.43-.48,5,5,0,0,0-.39-.41,6.76,6.76,0,0,0-.55-.52,2.84,2.84,0,0,0-.26-.24c-.29-.26-.58-.5-.88-.73a8.72,8.72,0,0,0-.87-.63l-.16-.12q-.5-.33-1-.63l-.38-.21-.37-.19a6.16,6.16,0,0,0-.68-.34c-.25-.12-.49-.23-.74-.33l-.06,0a17.49,17.49,0,0,0-4.47-1.18h0c-.38,0-.76-.09-1.14-.11h0c-.38,0-.75,0-1.13,0h0c-.38,0-.75,0-1.13,0h0c-.38,0-.76.06-1.14.11h0a17.49,17.49,0,0,0-4.47,1.18l-.06,0c-.27.11-.55.24-.82.37s-.68.33-1,.51l-.34.19c-.34.2-.68.41-1,.63a2.64,2.64,0,0,0-.29.21,6.08,6.08,0,0,0-.66.47c-.13.1-.26.2-.38.31a5.05,5.05,0,0,0-.51.43,6.2,6.2,0,0,0-.48.43,11.32,11.32,0,0,0-.8.8,6.2,6.2,0,0,0-.43.48,5.05,5.05,0,0,0-.43.51c-.11.12-.21.25-.31.38a6.08,6.08,0,0,0-.47.66,1.94,1.94,0,0,0-.21.29c-.22.33-.43.67-.63,1a3.72,3.72,0,0,0-.19.34c-.18.33-.35.67-.51,1s-.26.55-.37.82a.14.14,0,0,1,0,.06,17.49,17.49,0,0,0-1.18,4.47h0c-.05.38-.09.76-.11,1.14v0c0,.38,0,.75,0,1.13v0c0,.38,0,.75,0,1.13v0c0,.38.06.76.11,1.14h0a17.49,17.49,0,0,0,1.18,4.47.14.14,0,0,0,0,.06c.1.25.21.49.33.74a6.16,6.16,0,0,0,.34.68c.12.25.26.5.4.75s.41.69.63,1l.12.16a8.72,8.72,0,0,0,.63.87,8.61,8.61,0,0,0,.55.68L93.62,198.39l-.43-.07a16.45,16.45,0,0,0-1.72-.19l-.5,0h-.66c-.39,0-.78,0-1.16,0s-.73.05-1.09.1l-.15,0c-.36.05-.71.1-1.06.18a10.5,10.5,0,0,0-1.14.26,10.16,10.16,0,0,0-1.11.33,10,10,0,0,0-1.08.4h0c-.35.14-.69.29-1,.45l0,0c-.31.15-.62.31-.92.48l-.29.16c-.21.12-.41.24-.6.37l-.55.36a14.33,14.33,0,0,0-1.26,1,6.8,6.8,0,0,0-.65.57,6,6,0,0,0-.63.6L77,204a4.64,4.64,0,0,0-.37.42c-.13.15-.26.3-.38.46-.3.37-.59.76-.86,1.16s-.44.68-.65,1l-.31.56a10.17,10.17,0,0,0-.51,1c-.19.4-.36.82-.51,1.23-.1.26-.19.53-.27.8l0,.07c-.06.2-.12.4-.17.6l-.09.34c-.06.25-.12.5-.17.76s-.12.59-.16.89c-.08.52-.14,1-.17,1.57l0,.48c0,.23,0,.47,0,.7,0,.38,0,.76,0,1.14s.06.77.11,1.14c0,0,0,0,0,0,0,.38.11.76.19,1.13a15,15,0,0,0,.59,2.24,8.36,8.36,0,0,0,.4,1.09c.13.35.29.7.45,1l0,0c.16.35.34.69.53,1,0,0,0,0,0,0,.18.32.37.64.58.95,0,0,0,.05,0,.06.17.27.35.52.53.77a10.92,10.92,0,0,0,.73.92,4.64,4.64,0,0,0,.37.42,14.45,14.45,0,0,0,1.57,1.56c.26.23.52.45.8.66l0,0c.31.25.64.48,1,.71h0a11.68,11.68,0,0,0,1.06.66q.27.17.54.3a10.8,10.8,0,0,0,1.08.53,5.55,5.55,0,0,0,.56.24,15.54,15.54,0,0,0,2.33.78l.87.2.76.14a16.45,16.45,0,0,0,1.72.19l.5,0h.66c.39,0,.78,0,1.16,0s.72,0,1.07-.1a.57.57,0,0,0,.18,0,8.84,8.84,0,0,0,1-.17,10.5,10.5,0,0,0,1.14-.26c.37-.09.73-.2,1.09-.32l.06,0c.29-.1.59-.2.87-.32l.26-.1c.32-.13.63-.27.94-.42L99,232a6.05,6.05,0,0,0,.55-.32l.3-.18a5.69,5.69,0,0,0,.52-.33l.12-.09a13.53,13.53,0,0,0,1.31-1,6.8,6.8,0,0,0,.65-.57,6,6,0,0,0,.63-.6q.3-.3.6-.63a4.64,4.64,0,0,0,.37-.42c.13-.15.26-.3.38-.46.3-.37.59-.76.86-1.16s.44-.68.65-1c.11-.18.21-.37.31-.56a10.17,10.17,0,0,0,.51-1.05,13.79,13.79,0,0,0,.58-1.43H232.84a14.28,14.28,0,0,0,.58,1.43,10.17,10.17,0,0,0,.51,1.05l.3.54s0,0,0,0c.21.36.42.7.65,1a13.91,13.91,0,0,0,.86,1.16c.12.16.25.31.38.46a4.64,4.64,0,0,0,.37.42,17.84,17.84,0,0,0,1.23,1.23,6.8,6.8,0,0,0,.65.57,14.33,14.33,0,0,0,1.26.95c.18.13.37.25.55.36l.55.34a3.62,3.62,0,0,0,.43.24c.29.16.57.31.87.45s.63.29,1,.42a.61.61,0,0,0,.17.07,8.87,8.87,0,0,0,1,.36q.56.19,1.11.33c.38.11.76.19,1.14.26a9.56,9.56,0,0,0,1,.17.57.57,0,0,0,.18,0c.35.05.71.08,1.07.1s.77,0,1.16,0h.66l.5,0a14.14,14.14,0,0,0,1.72-.19l.75-.14.88-.2c.32-.08.64-.17,1-.28l.73-.25q.62-.22,1.23-.51a10.17,10.17,0,0,0,1-.51l.54-.3h0c.36-.2.7-.42,1-.65s.73-.51,1.07-.79.5-.39.73-.6a16,16,0,0,0,1.55-1.53,5.27,5.27,0,0,0,.49-.57,15.23,15.23,0,0,0,1-1.39,6,6,0,0,0,.34-.53,3.85,3.85,0,0,0,.23-.38,5,5,0,0,0,.29-.5,18.07,18.07,0,0,0,.94-2q.19-.48.36-1t.33-1.11c.09-.33.16-.65.23-1s.08-.4.1-.59.05-.26.07-.39.06-.41.08-.61,0-.35,0-.53a3.87,3.87,0,0,0,0-.48A1.41,1.41,0,0,0,267.88,216.85Zm51.93-46.77c0-82.56-67.17-149.73-149.73-149.73S20.35,87.52,20.35,170.08,87.52,319.81,170.08,319.81,319.81,252.64,319.81,170.08Z"/></g><g id="bf792690-93e9-439c-99e1-618053801888" data-name="TEXT_OUTLINE"><path d="M435.39,170.69v-.3c0-29.7,22.2-54.3,53.1-54.3,19.05,0,30.45,6.75,41,16.65l-8.1,8.7c-8.85-8.4-18.75-14.4-33-14.4-23.25,0-40.65,18.9-40.65,43.05v.3c0,24.3,17.55,43.35,40.65,43.35,14.4,0,23.85-5.55,33.9-15.15l7.8,7.65c-10.95,11.1-22.95,18.44-42,18.44C457.74,224.68,435.39,200.84,435.39,170.69Z"/><path d="M648.09,170.69v-.3c0-28.95,21.75-54.3,53.7-54.3s53.4,25,53.4,54v.3c0,29-21.75,54.29-53.7,54.29S648.09,199.64,648.09,170.69Zm94.8,0v-.3c0-23.85-17.4-43.35-41.4-43.35s-41.1,19.2-41.1,43.05v.3c0,23.85,17.4,43.35,41.4,43.35S742.89,194.54,742.89,170.69Z"/><path d="M885.24,117.89h12l38.25,57.3,38.25-57.3h12v105H973.89v-85l-38.25,56.25H935L896.79,138v84.9H885.24Z"/><path d="M1120.44,117.89h39.3c23.7,0,39.3,12.6,39.3,33.3v.3c0,22.65-18.9,34.35-41.25,34.35h-25.5v37h-11.85Zm37.8,57.15c17.4,0,28.8-9.3,28.8-23.1v-.3c0-15-11.25-22.8-28.2-22.8h-26.55V175Z"/><path d="M1354,117.14h11.1l47.85,105.75h-12.75l-12.3-27.75h-57.15l-12.45,27.75h-12.15Zm29.25,67.2-23.85-53.4-24,53.4Z"/><path d="M1529.64,207.59l7.36-8.7c10.94,9.9,21.44,14.85,36,14.85,14.1,0,23.4-7.5,23.4-17.85v-.3c0-9.75-5.25-15.3-27.3-20-24.15-5.25-35.25-13-35.25-30.3V145c0-16.5,14.55-28.65,34.5-28.65,15.3,0,26.25,4.35,36.9,12.9l-6.9,9.15c-9.75-7.95-19.5-11.4-30.3-11.4-13.65,0-22.35,7.5-22.35,17v.3c0,9.9,5.4,15.45,28.5,20.4,23.4,5.1,34.2,13.65,34.2,29.7v.3c0,18-15,29.7-35.85,29.7C1555.89,224.39,1542.24,218.84,1529.64,207.59Z"/></g></svg>