<?xml version="1.0" encoding="utf-8"?>
<!-- Generator: Adobe Illustrator 25.4.1, SVG Export Plug-In . SVG Version: 6.00 Build 0)  -->
<svg version="1.1" id="e9821a2d-0d30-4a24-ba95-f19f4aaabdf0"
	 xmlns="http://www.w3.org/2000/svg" xmlns:xlink="http://www.w3.org/1999/xlink" x="0px" y="0px" viewBox="0 0 340.2 340.2"
	 style="enable-background:new 0 0 340.2 340.2;" xml:space="preserve">
<style type="text/css">
	.st0{fill:#0092D2;}
</style>
<path class="st0" d="M236.1,204.4c-0.1,0.1-0.1,0.2-0.2,0.3c-0.3,0.4-0.7,0.8-1,1.3c-0.1,0.2-0.2,0.4-0.4,0.6
	c-0.1,0.2-0.2,0.4-0.4,0.6c-0.1,0.1-0.1,0.2-0.2,0.3c-0.2,0.3-0.3,0.6-0.5,0.9c0,0,0,0,0,0c-0.2,0.3-0.3,0.7-0.5,1v0
	c-0.1,0.3-0.2,0.5-0.3,0.8H107.3c-0.1-0.3-0.2-0.5-0.3-0.8c-0.1-0.4-0.3-0.7-0.5-1c0,0,0,0,0,0c-0.2-0.3-0.3-0.7-0.5-1l0,0
	c-0.2-0.3-0.4-0.6-0.6-1c0,0,0,0,0-0.1c-0.2-0.3-0.3-0.5-0.5-0.8c-0.2-0.3-0.5-0.6-0.7-0.9c0-0.1-0.1-0.1-0.1-0.1l62.8-108.7
	c0.3,0.1,0.7,0.1,1,0.2c0.4,0,0.8,0.1,1.2,0.1c0.4,0,0.8,0,1.2,0h0c0.4,0,0.8,0,1.2,0c0.4,0,0.8-0.1,1.1-0.1c0.3,0,0.7-0.1,1-0.2
	L236.1,204.4z M201.4,157.7l-5-8.7l-26.3,15.2l-26.3-15.2l-5,8.7l26.3,15.2v30.4h10V173L201.4,157.7z M288.3,107.6
	c10.2,19.2,15.5,40.7,15.5,62.5c0,72.1-57.3,131-128.7,133.6v-74.8h-10v74.8c-71.4-2.6-128.7-61.6-128.7-133.6
	c0-21.8,5.3-43.2,15.5-62.5l64.8,37.4l5-8.7L56.9,98.9c39.2-62.5,121.7-81.4,184.3-42.1c17,10.7,31.5,25.1,42.1,42.1l-64.8,37.4
	l5,8.7L288.3,107.6z M267.9,216.8c0-0.5,0-1.1,0-1.6c-0.1-1.8-0.4-3.6-1.1-5.3l0-0.1c-0.1-0.2-0.2-0.5-0.3-0.7
	c-0.1-0.2-0.2-0.5-0.3-0.7c0-0.1,0-0.1-0.1-0.2c-0.1-0.2-0.2-0.5-0.3-0.7c-0.1-0.1-0.1-0.3-0.2-0.4c0-0.1-0.1-0.2-0.1-0.2
	c-0.1-0.1-0.1-0.3-0.2-0.4c-0.2-0.3-0.4-0.6-0.6-0.9c-0.1-0.1-0.2-0.3-0.3-0.4c-0.1-0.2-0.3-0.4-0.4-0.5c0,0,0-0.1-0.1-0.1
	c-0.2-0.2-0.3-0.4-0.5-0.6c-0.2-0.2-0.4-0.4-0.6-0.6c-0.2-0.2-0.4-0.4-0.6-0.6c0,0,0-0.1-0.1-0.1c-0.2-0.2-0.3-0.3-0.5-0.5
	c-0.1-0.1-0.2-0.2-0.3-0.2c-0.3-0.2-0.6-0.5-0.9-0.7c-0.1-0.1-0.3-0.2-0.5-0.3c-0.1,0-0.1-0.1-0.2-0.1c-0.2-0.2-0.5-0.3-0.7-0.4
	c-0.1-0.1-0.2-0.1-0.3-0.2c-0.3-0.2-0.6-0.3-0.9-0.5c0,0,0,0,0,0c-0.3-0.2-0.7-0.3-1-0.5h0c-0.4-0.2-0.7-0.3-1.1-0.4
	c-0.7-0.3-1.5-0.5-2.2-0.6c-0.4-0.1-0.7-0.1-1.1-0.2c0,0-0.1,0-0.1,0c-0.4,0-0.7-0.1-1.1-0.1c-0.4,0-0.8,0-1.1,0c-0.2,0-0.5,0-0.7,0
	c-0.2,0-0.3,0-0.5,0c-0.6,0-1.2,0.1-1.7,0.2c-0.1,0-0.3,0-0.4,0.1L183.8,89.7c0.2-0.2,0.4-0.4,0.5-0.7c0.2-0.3,0.4-0.6,0.6-0.9
	c0,0,0.1-0.1,0.1-0.2c0.2-0.3,0.4-0.7,0.6-1c0.2-0.2,0.3-0.5,0.4-0.8c0.1-0.2,0.2-0.5,0.3-0.7c0.1-0.2,0.2-0.5,0.3-0.8
	c0.1-0.4,0.3-0.7,0.4-1.1c0.4-1.1,0.6-2.2,0.8-3.4c0.1-0.4,0.1-0.8,0.1-1.2c0-0.4,0-0.8,0-1.2v0c0-0.4,0-0.8,0-1.2
	c0-0.4-0.1-0.8-0.1-1.1c-0.2-1.5-0.6-3-1.2-4.5c0,0,0,0,0,0c-0.1-0.2-0.2-0.5-0.3-0.8c-0.1-0.2-0.2-0.5-0.3-0.7
	c-0.1-0.1-0.1-0.2-0.2-0.4c-0.1-0.1-0.1-0.3-0.2-0.4c-0.2-0.3-0.4-0.7-0.6-1c-0.1-0.1-0.1-0.2-0.2-0.3c-0.1-0.2-0.3-0.4-0.5-0.7
	c-0.1-0.1-0.2-0.3-0.3-0.4c-0.1-0.2-0.3-0.3-0.4-0.5c-0.1-0.2-0.3-0.3-0.4-0.5c-0.1-0.1-0.3-0.3-0.4-0.4c-0.2-0.2-0.4-0.4-0.5-0.5
	c-0.1-0.1-0.2-0.2-0.3-0.2c-0.3-0.3-0.6-0.5-0.9-0.7c-0.3-0.2-0.6-0.4-0.9-0.6c-0.1,0-0.1-0.1-0.2-0.1c-0.3-0.2-0.7-0.4-1-0.6
	c-0.1-0.1-0.2-0.1-0.4-0.2c-0.1-0.1-0.2-0.1-0.4-0.2c-0.2-0.1-0.4-0.2-0.7-0.3c-0.2-0.1-0.5-0.2-0.7-0.3c0,0,0,0-0.1,0
	c-1.4-0.6-2.9-1-4.5-1.2h0c-0.4,0-0.8-0.1-1.1-0.1h0c-0.4,0-0.8,0-1.1,0h0c-0.4,0-0.8,0-1.1,0h0c-0.4,0-0.8,0.1-1.1,0.1h0
	c-1.5,0.2-3,0.6-4.5,1.2c0,0,0,0-0.1,0c-0.3,0.1-0.5,0.2-0.8,0.4c-0.3,0.2-0.7,0.3-1,0.5c-0.1,0.1-0.2,0.1-0.3,0.2
	c-0.3,0.2-0.7,0.4-1,0.6c-0.1,0.1-0.2,0.1-0.3,0.2c-0.2,0.1-0.5,0.3-0.7,0.5c-0.1,0.1-0.3,0.2-0.4,0.3c-0.2,0.1-0.3,0.3-0.5,0.4
	c-0.2,0.1-0.3,0.3-0.5,0.4c-0.1,0.1-0.3,0.3-0.4,0.4c-0.1,0.1-0.3,0.3-0.4,0.4c-0.2,0.2-0.3,0.3-0.4,0.5c-0.2,0.2-0.3,0.3-0.4,0.5
	c-0.1,0.1-0.2,0.2-0.3,0.4c-0.2,0.2-0.3,0.4-0.5,0.7c-0.1,0.1-0.1,0.2-0.2,0.3c-0.2,0.3-0.4,0.7-0.6,1c-0.1,0.1-0.1,0.2-0.2,0.3
	c-0.2,0.3-0.3,0.7-0.5,1c-0.1,0.3-0.3,0.5-0.4,0.8c0,0,0,0,0,0.1c-0.6,1.4-1,2.9-1.2,4.5v0c0,0.4-0.1,0.8-0.1,1.1v0
	c0,0.4,0,0.8,0,1.1v0c0,0.4,0,0.8,0,1.1v0c0,0.4,0.1,0.8,0.1,1.1v0c0.2,1.5,0.6,3,1.2,4.5c0,0,0,0,0,0.1c0.1,0.2,0.2,0.5,0.3,0.7
	c0.1,0.2,0.2,0.5,0.3,0.7c0.1,0.2,0.3,0.5,0.4,0.8c0.2,0.3,0.4,0.7,0.6,1c0,0,0.1,0.1,0.1,0.2c0.4,0.5,0.8,1.1,1.2,1.5L93.6,198.4
	c-0.1,0-0.3-0.1-0.4-0.1c-0.6-0.1-1.1-0.2-1.7-0.2c-0.2,0-0.3,0-0.5,0c-0.2,0-0.4,0-0.7,0c-0.4,0-0.8,0-1.2,0
	c-0.4,0-0.7,0.1-1.1,0.1c-0.1,0-0.1,0-0.1,0c-0.4,0-0.7,0.1-1.1,0.2c-0.8,0.1-1.5,0.3-2.2,0.6c-0.4,0.1-0.7,0.2-1.1,0.4h0
	c-0.3,0.1-0.7,0.3-1,0.5c0,0,0,0,0,0c-0.3,0.1-0.6,0.3-0.9,0.5c-0.1,0-0.2,0.1-0.3,0.2c-0.2,0.1-0.4,0.2-0.6,0.4
	c-0.2,0.1-0.4,0.2-0.5,0.4c-0.4,0.3-0.9,0.6-1.3,0.9c-0.2,0.2-0.4,0.4-0.7,0.6c-0.2,0.2-0.4,0.4-0.6,0.6c-0.2,0.2-0.4,0.4-0.6,0.6
	c-0.1,0.1-0.3,0.3-0.4,0.4c-0.1,0.1-0.3,0.3-0.4,0.5c-0.3,0.4-0.6,0.8-0.9,1.2c-0.2,0.3-0.4,0.7-0.7,1c-0.1,0.2-0.2,0.4-0.3,0.6
	c-0.2,0.3-0.4,0.7-0.5,1c-0.2,0.4-0.4,0.8-0.5,1.2c-0.1,0.3-0.2,0.5-0.3,0.8c0,0,0,0,0,0.1c-0.1,0.2-0.1,0.4-0.2,0.6
	c0,0.1-0.1,0.2-0.1,0.3c-0.1,0.2-0.1,0.5-0.2,0.8c-0.1,0.3-0.1,0.6-0.2,0.9c-0.1,0.5-0.1,1-0.2,1.6c0,0.2,0,0.3,0,0.5
	c0,0.2,0,0.5,0,0.7c0,0.4,0,0.8,0,1.1c0,0.4,0.1,0.8,0.1,1.1c0,0,0,0,0,0c0,0.4,0.1,0.8,0.2,1.1c0.1,0.8,0.3,1.5,0.6,2.2
	c0.1,0.4,0.2,0.7,0.4,1.1c0.1,0.4,0.3,0.7,0.5,1c0,0,0,0,0,0c0.2,0.3,0.3,0.7,0.5,1c0,0,0,0,0,0c0.2,0.3,0.4,0.6,0.6,1
	c0,0,0,0,0,0.1c0.2,0.3,0.4,0.5,0.5,0.8c0.2,0.3,0.5,0.6,0.7,0.9c0.1,0.1,0.2,0.3,0.4,0.4c0.5,0.6,1,1.1,1.6,1.6
	c0.3,0.2,0.5,0.5,0.8,0.7c0,0,0,0,0,0c0.3,0.2,0.6,0.5,1,0.7h0c0.3,0.2,0.7,0.5,1.1,0.7c0.2,0.1,0.4,0.2,0.5,0.3
	c0.3,0.2,0.7,0.4,1.1,0.5c0.2,0.1,0.4,0.2,0.6,0.2c0.8,0.3,1.5,0.6,2.3,0.8c0.3,0.1,0.6,0.1,0.9,0.2c0.2,0,0.5,0.1,0.8,0.1
	c0.6,0.1,1.1,0.2,1.7,0.2c0.2,0,0.3,0,0.5,0c0.2,0,0.4,0,0.7,0c0.4,0,0.8,0,1.2,0c0.4,0,0.7-0.1,1.1-0.1c0.1,0,0.1,0,0.2,0
	c0.4,0,0.7-0.1,1-0.2c0.4-0.1,0.8-0.2,1.1-0.3c0.4-0.1,0.7-0.2,1.1-0.3c0,0,0,0,0.1,0c0.3-0.1,0.6-0.2,0.9-0.3
	c0.1,0,0.2-0.1,0.3-0.1c0.3-0.1,0.6-0.3,0.9-0.4c0.3-0.1,0.6-0.3,0.9-0.4c0.2-0.1,0.4-0.2,0.5-0.3c0.1-0.1,0.2-0.1,0.3-0.2
	c0.2-0.1,0.4-0.2,0.5-0.3l0.1-0.1c0.5-0.3,0.9-0.6,1.3-1c0.2-0.2,0.4-0.4,0.6-0.6c0.2-0.2,0.4-0.4,0.6-0.6c0.2-0.2,0.4-0.4,0.6-0.6
	c0.1-0.1,0.3-0.3,0.4-0.4c0.1-0.1,0.3-0.3,0.4-0.5c0.3-0.4,0.6-0.8,0.9-1.2c0.2-0.3,0.4-0.7,0.6-1c0.1-0.2,0.2-0.4,0.3-0.6
	c0.2-0.3,0.4-0.7,0.5-1c0.2-0.5,0.4-0.9,0.6-1.4h125.5c0.2,0.5,0.4,1,0.6,1.4c0.1,0.4,0.3,0.7,0.5,1c0.1,0.2,0.2,0.4,0.3,0.5
	c0,0,0,0,0,0c0.2,0.4,0.4,0.7,0.6,1c0.3,0.4,0.6,0.8,0.9,1.2c0.1,0.2,0.2,0.3,0.4,0.5c0.1,0.1,0.2,0.3,0.4,0.4
	c0.4,0.4,0.8,0.8,1.2,1.2c0.2,0.2,0.4,0.4,0.7,0.6c0.4,0.3,0.8,0.7,1.3,1c0.2,0.1,0.4,0.2,0.5,0.4c0.2,0.1,0.4,0.2,0.6,0.3
	c0.1,0.1,0.3,0.2,0.4,0.2c0.3,0.2,0.6,0.3,0.9,0.5c0.3,0.1,0.6,0.3,1,0.4c0.1,0,0.1,0.1,0.2,0.1c0.3,0.1,0.6,0.3,1,0.4
	c0.4,0.1,0.7,0.2,1.1,0.3c0.4,0.1,0.8,0.2,1.1,0.3c0.3,0.1,0.7,0.1,1.1,0.2c0.1,0,0.1,0,0.2,0c0.3,0,0.7,0.1,1.1,0.1
	c0.4,0,0.8,0,1.2,0c0.2,0,0.4,0,0.7,0c0.2,0,0.3,0,0.5,0c0.6,0,1.2-0.1,1.7-0.2c0.2,0,0.5-0.1,0.8-0.1c0.3-0.1,0.6-0.1,0.9-0.2
	c0.3-0.1,0.6-0.2,1-0.3c0.2-0.1,0.5-0.2,0.7-0.2c0.4-0.1,0.8-0.3,1.2-0.5c0.4-0.2,0.7-0.3,1-0.5c0.2-0.1,0.4-0.2,0.5-0.3
	c0,0,0,0,0,0c0.4-0.2,0.7-0.4,1-0.6c0.4-0.2,0.7-0.5,1.1-0.8c0.2-0.2,0.5-0.4,0.7-0.6c0.6-0.5,1.1-1,1.5-1.5
	c0.2-0.2,0.3-0.4,0.5-0.6c0.4-0.4,0.7-0.9,1-1.4c0.1-0.2,0.2-0.4,0.3-0.5c0.1-0.1,0.2-0.2,0.2-0.4c0.1-0.2,0.2-0.3,0.3-0.5
	c0.4-0.6,0.7-1.3,0.9-2c0.1-0.3,0.2-0.7,0.4-1c0.1-0.4,0.2-0.7,0.3-1.1c0.1-0.3,0.2-0.7,0.2-1c0-0.2,0.1-0.4,0.1-0.6
	c0-0.1,0-0.3,0.1-0.4c0-0.2,0.1-0.4,0.1-0.6c0-0.2,0-0.4,0-0.5c0-0.2,0-0.3,0-0.5C267.9,217,267.9,216.9,267.9,216.8z M319.8,170.1
	c0-82.6-67.2-149.7-149.7-149.7c-82.6,0-149.7,67.2-149.7,149.7c0,82.6,67.2,149.7,149.7,149.7C252.6,319.8,319.8,252.6,319.8,170.1
	L319.8,170.1z"/>
</svg>
